<?xml version="1.0" standalone="no"?>
<!DOCTYPE svg PUBLIC "-//W3C//DTD SVG 20010904//EN"
 "http://www.w3.org/TR/2001/REC-SVG-20010904/DTD/svg10.dtd">
<svg version="1.0" xmlns="http://www.w3.org/2000/svg"
 width="256.000000pt" height="256.000000pt" viewBox="0 0 256.000000 256.000000"
 preserveAspectRatio="xMidYMid meet">
<metadata>
Created by potrace 1.14, written by Peter Selinger 2001-2017
</metadata>
<g transform="translate(0.000000,256.000000) scale(0.100000,-0.100000)"
fill="#000000" stroke="none">
<path d="M283 2516 c-102 -33 -176 -97 -222 -196 l-26 -55 0 -985 0 -985 26
-56 c37 -79 90 -133 167 -171 l67 -33 970 -3 c934 -2 972 -1 1022 17 106 39
166 93 212 191 l26 55 3 970 c2 919 1 973 -16 1020 -38 103 -91 163 -192 216
l-45 24 -975 2 c-789 2 -983 -1 -1017 -11z"/>
</g>
</svg>
